<svg xmlns="http://www.w3.org/2000/svg" version="1.1" xmlns:xlink="http://www.w3.org/1999/xlink" width="1000" height="1000"><g clip-path="url(#SvgjsClipPath1266)"><rect width="1000" height="1000" fill="#ffffff"></rect><g transform="matrix(3.374673078545516,0,0,3.374673078545516,100,113.32995866025482)"><svg xmlns="http://www.w3.org/2000/svg" version="1.1" xmlns:xlink="http://www.w3.org/1999/xlink" width="237.06" height="229.16"><svg id="b" xmlns="http://www.w3.org/2000/svg" viewBox="0 0 237.06 229.16"><g id="c"><path d="M36.13,2.11C46.33-1.03,61.48.63,74.01.19c38.18.12,85.95-.45,114.08-.03,5.59.31,10.18,1.22,15.59,3.57,15.8,6.64,28.57,22.13,32.1,39.06,1.54,7.42,1.21,13.99,1.26,25.49,0,9.07,0,17.96,0,27.21.04,20.7-.02,47.12,0,66.33-.04,10.52.21,16.79-1.24,24.03-2.55,11.74-8.96,22.99-18.33,30.68-14.48,11.63-26.6,13.07-46.16,12.52-30.86,0-88.79.01-112.22,0-23.47,1.36-46.29-11.67-54.89-34.16C-.82,182.11.13,174.66,0,158.29c0-21.48.03-43.76.04-65.28,0-10.67.01-20.54.02-28.26.06-8.53-.3-15.21,1.25-23.17C4.67,24.15,18.87,7.35,36,2.15l.13-.04ZM43.46,33.28c-4.27,1.07-6.53,6.11-4.7,10.06,17.14,39.2,32.86,79.08,50.01,118.27,4.26,9.36,7.98,22.02,16.06,28.7,4.78,3.29,13.55,3.19,19.53,2.84,7.43-.35,14.08-3.24,11.74-12.21-.13-.63-.39-1.54-.55-2.02-1.36-3.2-56.28-132.03-57.35-134.54-.03-.07-.21-.43-.62-1.13-.09-.16-.19-.32-.3-.5-3.08-5.09-8.33-8.58-14.21-9.43-4.73-.53-13.89-1.07-19.47-.07l-.15.04ZM172.67,33.32c-5.69,1.37-10.45,5.5-13.49,10.36-1.77,2.95-3.05,6.85-4.58,10.34-4.14,10.01-8.83,21.4-14.09,34.15-5.74,13.92-11.21,27.16-13.43,32.55-2.16,4.97-1.73,10.07.48,15.41,6.97,14.22,25.66,12.72,31.52-1.3,6.04-15.05,32.94-79.29,37.87-92.43,1.07-10.73-16.26-10.91-24.09-9.14l-.18.05Z" fill="#2c4437"></path></g></svg></svg></g></g><defs><clipPath id="SvgjsClipPath1266"><rect width="1000" height="1000" x="0" y="0" rx="250" ry="250"></rect></clipPath></defs></svg>