<?xml version="1.0" encoding="UTF-8"?><svg id="b" xmlns="http://www.w3.org/2000/svg" viewBox="0 0 873.71 229.15"><g id="c"><path d="M36.14,2.11C46.34-1.03,61.49.63,74.02.19c38.18.12,85.95-.45,114.08-.03,5.59.31,10.18,1.22,15.59,3.57,15.8,6.64,28.57,22.13,32.1,39.06,1.54,7.42,1.21,13.99,1.26,25.49v27.21c.04,20.7-.02,47.12,0,66.33-.04,10.52.21,16.79-1.24,24.03-2.55,11.74-8.96,22.99-18.33,30.68-14.48,11.63-26.6,13.07-46.16,12.52-30.86,0-88.79.01-112.22,0-23.47,1.36-46.29-11.67-54.89-34.16C-.82,182.09.13,174.65,0,158.28c0-21.48.03-43.76.04-65.28,0-10.67.01-20.54.02-28.26.06-8.53-.3-15.21,1.25-23.17C4.67,24.14,18.87,7.35,36,2.14l.13-.04h0ZM43.48,33.28c-4.27,1.07-6.53,6.11-4.7,10.06,17.14,39.2,32.86,79.08,50.01,118.27,4.26,9.36,7.98,22.02,16.06,28.7,4.78,3.29,13.55,3.19,19.53,2.84,7.43-.35,14.08-3.24,11.74-12.21-.13-.63-.39-1.54-.55-2.02-1.36-3.2-56.28-132.03-57.35-134.54-.03-.07-.21-.43-.62-1.13-.09-.16-.19-.32-.3-.5-3.08-5.09-8.33-8.58-14.21-9.43-4.73-.53-13.89-1.07-19.47-.07l-.15.04h0ZM172.68,33.32c-5.69,1.37-10.45,5.5-13.49,10.36-1.77,2.95-3.05,6.85-4.58,10.34-4.14,10.01-8.83,21.4-14.09,34.15-5.74,13.92-11.21,27.16-13.43,32.55-2.16,4.97-1.73,10.07.48,15.41,6.97,14.22,25.66,12.72,31.52-1.3,6.04-15.05,32.94-79.29,37.87-92.43,1.07-10.73-16.26-10.91-24.09-9.14l-.18.05h-.01Z" fill="#2c4437"/><path d="M327.09,189.64l-46.2-151.2h29.4l37.8,124.32,38.43-124.32h29.4l-46.2,151.2h-42.63,0Z" fill="#2c4437"/><path d="M470.1,192.79c-11.41,0-21.42-2.56-30.03-7.67-8.61-5.11-15.31-12.16-20.11-21.16-4.8-8.99-7.19-19.34-7.19-31.03s2.45-22.24,7.35-31.24c4.9-8.99,11.66-16.01,20.26-21.05,8.61-5.04,18.51-7.56,29.72-7.56s21.44,2.56,30.08,7.67c8.64,5.11,15.38,12.16,20.21,21.16s7.24,19.34,7.24,31.03-2.43,22.14-7.3,31.13c-4.87,9-11.62,16.03-20.27,21.1-8.65,5.08-18.64,7.61-29.98,7.61h.02ZM470.1,166.12c9.17,0,16.01-3.1,20.53-9.29,4.51-6.2,6.77-14.16,6.77-23.89s-2.29-18.13-6.88-24.15c-4.58-6.02-11.39-9.03-20.42-9.03-6.23,0-11.34,1.4-15.33,4.2-3.99,2.8-6.95,6.69-8.87,11.65-1.93,4.97-2.89,10.75-2.89,17.32,0,10.15,2.29,18.22,6.88,24.2,4.58,5.98,11.32,8.98,20.21,8.98h0Z" fill="#2c4437"/><path d="M552.84,189.64V35.29h28.56v154.35h-28.56Z" fill="#2c4437"/><path d="M600.29,98.29v-22.05h80.64v22.05h-80.64ZM680.94,189.64c-7.84,1.47-15.52,2.12-23.05,1.94-7.53-.18-14.25-1.51-20.16-3.99-5.92-2.48-10.41-6.49-13.49-12.02-2.8-5.18-4.27-10.45-4.41-15.8-.14-5.36-.21-11.43-.21-18.22V44.74h28.56v95.13c0,4.41.05,8.38.16,11.92.1,3.54.82,6.35,2.15,8.45,2.52,3.99,6.54,6.16,12.08,6.51,5.53.35,11.65.07,18.38-.84v23.73h-.01Z" fill="#2c4437"/><path d="M708.23,60.49v-25.2h28.56v25.2h-28.56ZM708.23,189.64v-113.4h28.56v113.4h-28.56Z" fill="#2c4437"/><path d="M768.08,189.64l.21-151.2h28.98v92.4l38.43-54.6h35.28l-40.95,56.7,43.68,56.7h-37.17l-39.27-54.6v54.6h-29.19,0Z" fill="#2c4437"/></g></svg>